<?xml version="1.0" encoding="UTF-8"?><svg id="uuid-4fe4d884-472c-44b3-9ec8-687f0f9d4959" xmlns="http://www.w3.org/2000/svg" viewBox="0 0 221.89 79.45"><g id="uuid-3d067e88-6f19-4c05-a58a-04369f92959d"><path d="M197.19,49.99h-21.67l-3.21,8.9h-21.39L174.7,0h23.5l23.69,58.89h-21.48l-3.21-8.9" style="fill:#231f20;"/><path d="M73.28,21.43c-.8-1.16-1.93-2.06-3.4-2.7-1.47-.64-3.24-.96-5.32-.96-3.92,0-6.95,1.15-9.09,3.45-2.14,2.3-3.21,5.45-3.21,9.44,0,4.6,1.19,8.04,3.58,10.31,2.39,2.27,6.06,3.41,11.02,3.41s8.51-1.72,11.38-5.16h-16.25v-13.06h33.14v18.46c-2.82,4.38-6.7,8.14-11.66,11.27-4.96,3.13-11.23,4.7-18.82,4.7-6.73,0-12.59-1.26-17.58-3.78-4.99-2.52-8.81-6.06-11.48-10.6-2.66-4.55-3.99-9.73-3.99-15.55s1.33-11.01,3.99-15.55c2.66-4.55,6.47-8.08,11.43-10.6,4.96-2.52,10.77-3.78,17.44-3.78,8.51,0,15.44,1.86,20.79,5.57,5.35,3.71,2.34.62,10.79,9.4l-22.77,5.74" style="fill:#231f20;"/><polyline points="22.98 44.92 42.63 44.92 42.63 58.89 0 58.89 0 3.57 22.98 3.57 22.98 44.92" style="fill:#231f20;"/><polyline points="158.98 20.56 168.26 79.45 147.97 79.45 145.05 50.09 135.04 79.45 117.6 79.45 107.59 50.09 101.74 79.45 81.36 79.45 91.72 20.56 115.76 20.56 126.5 55.92 133.63 20.56 158.98 20.56" style="fill:#231f20;"/></g></svg>