<?xml version="1.0" encoding="UTF-8"?><svg id="uuid-c5e38787-4a8d-4f68-a4a4-7e4319abd60e" xmlns="http://www.w3.org/2000/svg" viewBox="0 0 30.43 28.43"><g id="uuid-1a2b2260-2dfe-493e-8c98-2564030e1563"><path d="M11.23,19.82c-.27,0-.54.21-.54.53v4.89c0,.27.22.53.54.53.27,0,.54-.21.54-.53v-4.89c0-.32-.27-.53-.54-.53"/><path d="M16.49,20.94c-.27,0-.54.21-.54.53v2.66c0,.27.22.53.54.53s.54-.21.54-.53v-2.66c0-.32-.22-.53-.54-.53"/><path d="M19.15,18.23c-.27,0-.54.21-.54.53v8.03c0,.27.22.53.54.53.27,0,.54-.21.54-.53v-8.03c0-.32-.27-.53-.54-.53"/><path d="M7.11,20.41h-.87v5.79h.87c.54,0,.98-.43.98-.96v-3.88c0-.53-.43-.96-.98-.96"/><path d="M22.3,21.31v3.88c0,.53.43.96.98.96h.87v-5.74h-.87c-.54,0-.98.43-.98.9"/><path d="M13.89,17.17c-.27,0-.54.21-.54.53v10.2c0,.05,0,.11.05.16.05.21.27.32.49.32s.43-.16.49-.32c0-.05.05-.11.05-.16v-10.26c-.05-.27-.27-.48-.54-.48"/><path d="M30.11,12.01c0-.11,0-.16-.05-.27-.05-.27-.11-.53-.16-.74-.16-.53-.33-1.06-.54-1.54-1.63-3.99-4.94-7.18-9.06-8.61-.6-.21-1.19-.37-1.84-.53-1.03-.21-2.12-.32-3.26-.32s-2.22.11-3.25.32c-.65.16-1.25.32-1.84.53C5.97,2.28,2.66,5.47,1.03,9.46c-.16.48-.38,1.01-.49,1.54-.11.27-.16.58-.22.9-.22.96-.33,1.97-.33,2.98v5.53c0,.27.22.53.54.53s.54-.21.54-.53v6.86c0,.64.54,1.17,1.19,1.17h1.74c.65,0,1.19-.53,1.19-1.17v-7.92c0-.64-.54-1.17-1.19-1.17h-1.79c-.65,0-1.19.53-1.19,1.17v-4.46c0-.8.05-1.59.22-2.39h1.36c.76,0,1.41-.48,1.63-1.17,1.57-4.62,5.97-7.76,10.96-7.76s9.38,3.14,10.96,7.76c.22.69.92,1.17,1.63,1.17h1.36c.16.74.22,1.54.22,2.39v4.46c0-.64-.54-1.17-1.19-1.17h-1.74c-.65,0-1.19.53-1.19,1.17v7.87c0,.64.54,1.17,1.19,1.17h1.74c.65,0,1.19-.53,1.19-1.17v-6.86c0,.27.22.53.54.53s.54-.21.54-.53v-5.47c-.05-1.01-.16-1.97-.33-2.87"/></g></svg>