<?xml version="1.0" encoding="UTF-8"?><svg id="uuid-b08b7079-f04f-46d5-b23a-035d7cba89cf" xmlns="http://www.w3.org/2000/svg" viewBox="0 0 448.19 348.21"><g id="uuid-19598633-d5b8-4579-8706-ccb94ee2914f"><g id="uuid-c7d282af-5910-48a9-8b92-7e2ab09cf88f"><path d="M197.19,318.74h-21.67l-3.21,8.9h-21.39l23.78-58.89h23.5l23.69,58.89h-21.48l-3.21-8.9M192.23,304.85l-5.88-16.39-5.88,16.39h11.76Z" style="fill:#231f20;"/><path d="M73.28,290.18c-.8-1.16-1.93-2.06-3.4-2.7s-3.24-.96-5.32-.96c-3.92,0-6.95,1.15-9.09,3.45s-3.21,5.45-3.21,9.44c0,4.6,1.19,8.04,3.58,10.31s6.06,3.41,11.02,3.41,8.51-1.72,11.38-5.16h-16.25v-13.06h33.14v18.46c-2.82,4.38-6.7,8.14-11.66,11.27s-11.23,4.7-18.82,4.7c-6.73,0-12.59-1.26-17.58-3.78-4.99-2.52-8.81-6.06-11.48-10.6-2.66-4.55-3.99-9.73-3.99-15.55s1.33-11.01,3.99-15.55c2.66-4.55,6.47-8.08,11.43-10.6s10.77-3.78,17.44-3.78c8.51,0,15.44,1.86,20.79,5.57s2.34.62,10.79,9.4l-22.77,5.74" style="fill:#231f20;"/><polyline points="22.98 313.67 42.62 313.67 42.62 327.64 0 327.64 0 272.33 22.98 272.33 22.98 313.67" style="fill:#231f20;"/><polyline points="158.97 289.32 168.26 348.21 147.97 348.21 145.04 318.85 135.04 348.21 117.59 348.21 107.59 318.85 101.74 348.21 81.36 348.21 91.71 289.32 115.76 289.32 126.5 324.67 133.63 289.32 158.97 289.32" style="fill:#231f20;"/></g><rect x="261.19" width="187" height="91" style="fill:#231f20;"/></g></svg>