<?xml version="1.0" encoding="UTF-8"?><svg id="uuid-20ff1db3-ff17-4ffc-afec-6c84f46a9f47" xmlns="http://www.w3.org/2000/svg" xmlns:xlink="http://www.w3.org/1999/xlink" viewBox="0 0 491.34 111.53"><defs><clipPath id="uuid-653f9d92-d49c-4f93-bae1-0cb2ffca7f99"><rect y="14.29" width="221.97" height="97.24" style="fill:none;"/></clipPath><clipPath id="uuid-38d97071-40e7-4b9f-9dd6-9735444855fa"><rect x="231.74" width="34.49" height="104.78" style="fill:none;"/></clipPath><clipPath id="uuid-971cab5b-c79c-4ea2-b455-658fa8eef78d"><path d="M261.12,85.87c-2.21-2.75-4.5-5.59-4.63-7.95-.08-1.44.72-3.22,1.49-4.95.63-1.4,1.22-2.73,1.43-4,.44-2.66.6-6.61-3.11-10.1-2.39-2.25-5.12-2.78-6.93-3.14-.45-.09-1.04-.2-1.34-.31-.63-2.71-1.56-19.89-2.06-31.5,4.97-2.4,9.72-3.72,9.81-3.74.65-.18,1.03-.84.86-1.49-.18-.65-.84-1.03-1.49-.86-.37.1-4.58,1.26-9.29,3.45,0-.08-.01-.15-.02-.23-.03-.33-.08-.82-.04-1.04.15-.06.41-.15.63-.21,1.1-.35,3.39-1.06,3.11-3.37-.26-2.11-1.25-2.66-2.32-3.07-.05-.02-.1-.04-.15-.06-.95-.64-1.06-.84-1.11-1.46.12-.1.31-.23.43-.31.51-.35,1.36-.93,1.15-1.94-.23-1.12-1.56-1.38-2.44-1.55-.44-.08-.68-.22-.78-.3.88-1.14.81-2.02.57-3.34-.27-1.52-2.1-2.59-6.33-3.69-1.98-.51-2.66-.67-2.69-.67-.66-.15-1.31.27-1.45.92-.15.66.27,1.31.92,1.45,0,0,.68.15,2.61.65,3.71.96,4.43,1.66,4.56,1.82.18,1,.14,1.04-.13,1.39-.52.66-.67,1.5-.39,2.26.18.5.69,1.33,2.07,1.76-.34.37-.59.84-.55,1.45.1,1.56.44,2.41,2.3,3.66l.1.06.11.05c.11.04.21.09.32.13.6.23.67.26.78,1.1.03.27-.68.51-1.42.74-.45.14-.87.27-1.22.48-1.3.76-1.16,2.25-1.06,3.33.03.35.07.71.06,1.03v.15c-4.75,2.51-9.45,6.02-10.83,10.49-3.25,10.53,2.73,17.36,8.51,23.96,1.98,2.27,4.04,4.61,5.65,7.05.66,1.01,1.77,4.06,2.63,7.26,1.02,3.82,1.23,6.02,1.12,6.62-1.11,1.13-2.22,2.42-2.9,4.23-.37.99-.14,1.91.4,2.65-1.26.66-2.67,1.64-3.02,2.88-.21.74-.05,1.49.46,2.12,1.1,1.37,2.7,1.53,3.92,1.53-.96.79-2.73,2.34-1.4,4.12.97,1.29,3.71,1.59,6.06,1.59,1.12,0,2.15-.07,2.86-.13.67-.06,1.17-.65,1.11-1.32-.06-.67-.65-1.16-1.32-1.11-2.87.25-5.92.05-6.67-.43.2-.27.71-.68,1-.92.88-.72,1.88-1.54,1.68-2.73-.26-1.54-1.88-1.52-2.85-1.51-1.16,0-2.01-.02-2.49-.61.24-.5,1.85-1.47,3.37-2.02.46-.17.78-.6.8-1.09s-.26-.95-.7-1.16c-.17-.08-1.09-.62-.94-1.01.54-1.44,1.5-2.52,2.46-3.49.43-.43,1.33-1.33-.47-8.3-.81-3.14-2.08-6.99-3.09-8.52-1.7-2.58-3.81-4.99-5.85-7.32-5.59-6.38-10.86-12.41-8.02-21.64,1.06-3.45,4.69-6.32,8.62-8.51.14,3.13.39,8.47.69,13.83.96,17.17,1.41,17.63,1.9,18.11.61.61,1.55.8,2.72,1.03,1.72.34,3.85.76,5.73,2.52,2.83,2.67,2.76,5.64,2.38,7.93-.16.96-.69,2.15-1.25,3.41-.89,1.99-1.81,4.05-1.7,6.07.17,3.14,2.71,6.29,5.16,9.34,2.46,3.06,5,6.22,4.5,8.63-.26,1.26-1.35,2.38-3.33,3.42-4.97,2.61-8.87,3-11.27,2.87-2.58-.14-4.03-.9-4.04-.91-.59-.32-1.32-.11-1.65.48-.33.59-.11,1.33.48,1.66.15.08,2.3,1.23,6.05,1.23,2.94,0,6.86-.7,11.57-3.18,2.67-1.4,4.16-3.06,4.58-5.08.74-3.54-2.17-7.16-4.99-10.66v.02Z" style="fill:none;"/></clipPath><clipPath id="uuid-63f410c7-0acc-446b-8e0b-56831b55099d"><rect x="231.74" width="34.49" height="104.78" style="fill:none;"/></clipPath><linearGradient id="uuid-7678ea01-2c5b-41cd-b74e-ad809955977c" x1="-184.15" y1="-3845.98" x2="-183.15" y2="-3845.98" gradientTransform="translate(13357.23 274155.46) scale(71.27)" gradientUnits="userSpaceOnUse"><stop offset="0" stop-color="#2e3588"/><stop offset=".05" stop-color="#1c5da7"/><stop offset=".12" stop-color="#009dd9"/><stop offset=".25" stop-color="#0c9447"/><stop offset=".29" stop-color="#31a244"/><stop offset=".38" stop-color="#8bc63f"/><stop offset=".41" stop-color="#a1ce3c"/><stop offset=".47" stop-color="#dbe336"/><stop offset=".5" stop-color="#faee33"/><stop offset=".58" stop-color="#f6b027"/><stop offset=".62" stop-color="#f59222"/><stop offset=".68" stop-color="#f37c25"/><stop offset=".75" stop-color="#f05b2a"/><stop offset=".77" stop-color="#ef5335"/><stop offset=".82" stop-color="#ec3e55"/><stop offset=".87" stop-color="#e81c87"/><stop offset=".88" stop-color="#e81c89"/><stop offset=".9" stop-color="#d61e89"/><stop offset="1" stop-color="#90278c"/></linearGradient><clipPath id="uuid-7f94f54e-b00d-4ea2-892b-d61686721871"><rect x="253.22" y="25.85" width="226.95" height="31.05" style="fill:none;"/></clipPath><clipPath id="uuid-43f728a5-ecf2-49b4-a816-1fb5fcd9fc5a"><rect x="270.98" y="49.32" width="220.36" height="31.05" style="fill:none;"/></clipPath></defs><g id="uuid-aac463ab-f820-4be2-96f1-0b48ab4d8a99"><g id="uuid-abe80db8-db42-4c15-bb84-ec27c8ba59b0"><g style="clip-path:url(#uuid-653f9d92-d49c-4f93-bae1-0cb2ffca7f99);"><path d="M197.27,64.28h-21.67l-3.21,8.9h-21.39l23.78-58.89h23.5l23.69,58.89h-21.48l-3.21-8.9M192.31,50.39l-5.88-16.39-5.88,16.39h11.76Z" style="fill:#231f20;"/><path d="M73.36,35.72c-.8-1.16-1.93-2.06-3.4-2.7s-3.24-.96-5.32-.96c-3.92,0-6.95,1.15-9.09,3.45s-3.21,5.45-3.21,9.44c0,4.6,1.19,8.04,3.58,10.31s6.06,3.41,11.02,3.41,8.51-1.72,11.38-5.16h-16.25v-13.06h33.14v18.46c-2.82,4.38-6.7,8.14-11.66,11.27s-11.23,4.7-18.82,4.7c-6.73,0-12.59-1.26-17.58-3.78-4.99-2.52-8.81-6.06-11.48-10.6-2.66-4.55-3.99-9.73-3.99-15.55s1.33-11.01,3.99-15.55c2.66-4.55,6.47-8.08,11.43-10.6s10.77-3.78,17.44-3.78c8.51,0,15.44,1.86,20.79,5.57s2.34.62,10.79,9.4l-22.77,5.74" style="fill:#231f20;"/><polyline points="23.06 59.21 42.7 59.21 42.7 73.18 .08 73.18 .08 17.87 23.06 17.87 23.06 59.21" style="fill:#231f20;"/><polyline points="159.05 34.86 168.34 93.75 148.05 93.75 145.12 64.39 135.12 93.75 117.67 93.75 107.67 64.39 101.82 93.75 81.44 93.75 91.79 34.86 115.84 34.86 126.58 70.21 133.71 34.86 159.05 34.86" style="fill:#231f20;"/></g><g style="clip-path:url(#uuid-38d97071-40e7-4b9f-9dd6-9735444855fa);"><g style="clip-path:url(#uuid-971cab5b-c79c-4ea2-b455-658fa8eef78d);"><g style="clip-path:url(#uuid-63f410c7-0acc-446b-8e0b-56831b55099d);"><rect x="199.73" y="3.14" width="98.48" height="98.48" transform="translate(35.89 191.39) rotate(-45)" style="fill:url(#uuid-7678ea01-2c5b-41cd-b74e-ad809955977c);"/></g></g></g><g style="clip-path:url(#uuid-7f94f54e-b00d-4ea2-892b-d61686721871);"><path d="M276.84,41.48h3.51v3.33h-7.15v-14.05h3.64v10.72h0Z" style="fill:#231f20;"/><path d="M289.25,42.69h-3.87l-.57,2.12h-3.82l4.25-14.05h4.2l4.23,14.05h-3.84l-.57-2.12h-.01ZM288.36,39.37l-1.05-3.91-1.05,3.91h2.1,0Z" style="fill:#231f20;"/><path d="M305.92,44.81h-3.64l-3.85-7.07v7.07h-3.64v-14.05h3.64l3.85,7.19v-7.19h3.64v14.05Z" style="fill:#231f20;"/><path d="M315.32,42.69h-3.87l-.57,2.12h-3.82l4.25-14.05h4.2l4.23,14.05h-3.84l-.57-2.12h-.01ZM314.43,39.37l-1.05-3.91-1.05,3.91h2.1,0Z" style="fill:#231f20;"/><path d="M326.7,44.81l-2.18-5.04h-.02v5.04h-3.64v-14.05h5.41c.94,0,1.74.2,2.41.6.67.4,1.17.95,1.5,1.65.33.69.5,1.48.5,2.35,0,.94-.22,1.77-.65,2.5s-1.05,1.25-1.86,1.57l2.53,5.38h-4ZM324.5,36.83h1.44c.35,0,.61-.1.79-.29.17-.19.26-.49.26-.9,0-.37-.09-.66-.27-.87-.18-.21-.44-.32-.78-.32h-1.44v2.38h0Z" style="fill:#231f20;"/><path d="M339.17,44.81l-3.38-6.09v6.09h-3.64v-14.05h3.64v5.92l3.33-5.92h4.12l-4,6.73,4.26,7.33h-4.33Z" style="fill:#231f20;"/><path d="M345.95,43.77c-.9-.79-1.39-1.94-1.47-3.46h3.87c.05.81.35,1.21.89,1.21.2,0,.36-.06.5-.17s.21-.29.21-.53c0-.33-.15-.6-.44-.8-.3-.21-.75-.44-1.38-.7-.74-.32-1.36-.63-1.84-.93-.49-.3-.9-.75-1.25-1.33s-.52-1.33-.51-2.24c0-.91.19-1.69.58-2.33.39-.64.92-1.13,1.59-1.46.67-.33,1.43-.5,2.27-.5,1.42,0,2.55.4,3.39,1.19.84.79,1.28,1.91,1.32,3.35h-3.92c-.01-.4-.09-.68-.25-.85-.15-.17-.34-.26-.56-.26-.15,0-.28.06-.38.19s-.15.3-.15.53c0,.32.15.58.43.78.29.21.75.45,1.39.74.73.33,1.34.65,1.81.95.48.3.89.73,1.24,1.27.35.54.52,1.22.52,2.04s-.17,1.63-.52,2.31c-.35.68-.86,1.21-1.52,1.6-.67.38-1.46.58-2.38.58-1.39,0-2.53-.39-3.43-1.18h0Z" style="fill:#231f20;"/><path d="M366.15,30.76v14.05h-3.64v-5.48h-3.46v5.48h-3.64v-14.05h3.64v5.06h3.46v-5.06h3.64Z" style="fill:#231f20;"/><path d="M371.74,30.76v14.05h-3.64v-14.05h3.64Z" style="fill:#231f20;"/><path d="M379.53,44.81l-2.18-5.04h-.02v5.04h-3.64v-14.05h5.41c.94,0,1.74.2,2.41.6.67.4,1.17.95,1.5,1.65.33.69.5,1.48.5,2.35,0,.94-.22,1.77-.65,2.5s-1.05,1.25-1.86,1.57l2.53,5.38h-4ZM377.33,36.83h1.44c.35,0,.61-.1.79-.29.17-.19.26-.49.26-.9,0-.37-.09-.66-.27-.87-.18-.21-.44-.32-.78-.32h-1.44v2.38h0Z" style="fill:#231f20;"/><path d="M388.63,34.27v1.73h3.61v3.32h-3.61v1.98h4.1v3.51h-7.74v-14.05h7.74v3.51h-4.1Z" style="fill:#231f20;"/><path d="M404.63,35.56c-.14-.28-.34-.49-.61-.65s-.58-.23-.95-.23c-.7,0-1.24.27-1.62.82s-.57,1.3-.57,2.25c0,1.1.21,1.92.64,2.46s1.08.81,1.97.81,1.52-.41,2.03-1.23h-2.9v-3.12h5.92v4.41c-.5,1.05-1.2,1.94-2.08,2.69-.89.75-2.01,1.12-3.36,1.12-1.2,0-2.25-.3-3.14-.9-.89-.6-1.57-1.45-2.05-2.53-.48-1.08-.71-2.32-.71-3.71s.24-2.63.71-3.71c.48-1.08,1.16-1.93,2.04-2.53.89-.6,1.92-.9,3.12-.9,1.52,0,2.76.44,3.71,1.33.96.89,1.52,2.09,1.7,3.61h-3.85Z" style="fill:#231f20;"/><path d="M413.71,30.76v7.92c0,.65.12,1.16.35,1.54.23.38.61.57,1.14.57s.91-.19,1.16-.57.38-.89.38-1.54v-7.92h3.62v7.92c0,1.34-.23,2.48-.69,3.42-.46.95-1.09,1.66-1.89,2.13s-1.69.71-2.67.71-1.86-.24-2.62-.71c-.76-.48-1.35-1.18-1.78-2.12s-.64-2.08-.64-3.43v-7.92h3.64Z" style="fill:#231f20;"/><path d="M425.89,30.76v14.05h-3.64v-14.05h3.64Z" style="fill:#231f20;"/><path d="M436.96,30.76v3.49h-3.08v10.56h-3.64v-10.56h-3.05v-3.49h9.77Z" style="fill:#231f20;"/><path d="M445.7,42.69h-3.87l-.57,2.12h-3.82l4.25-14.05h4.2l4.23,14.05h-3.84l-.57-2.12h0ZM444.81,39.37l-1.05-3.91-1.05,3.91h2.1Z" style="fill:#231f20;"/><path d="M457.08,44.81l-2.18-5.04h-.02v5.04h-3.64v-14.05h5.41c.94,0,1.74.2,2.41.6.67.4,1.17.95,1.5,1.65.33.69.5,1.48.5,2.35,0,.94-.22,1.77-.65,2.5-.43.73-1.05,1.25-1.86,1.57l2.53,5.38h-4,0ZM454.88,36.83h1.44c.35,0,.61-.1.79-.29.17-.19.26-.49.26-.9,0-.37-.09-.66-.27-.87-.18-.21-.44-.32-.78-.32h-1.44v2.38h0Z" style="fill:#231f20;"/><path d="M474.44,44.81l-.8-.91c-1.03.74-2.24,1.11-3.62,1.11-.94,0-1.76-.18-2.45-.54s-1.23-.86-1.6-1.52-.56-1.41-.56-2.25.17-1.54.52-2.21c.34-.67.86-1.23,1.55-1.7-.5-.75-.75-1.55-.75-2.38,0-.71.16-1.37.47-1.97s.77-1.07,1.37-1.42c.6-.35,1.32-.53,2.15-.53s1.56.18,2.15.55c.59.36,1.03.84,1.33,1.44.29.6.44,1.24.44,1.93h-3.31c0-.25-.06-.44-.18-.57s-.26-.19-.43-.19-.33.06-.45.19-.19.3-.19.53c0,.42.24.91.72,1.47l2.64,3.1c.15-.36.29-.76.41-1.21l.05-.18h3.53l-.16.52c-.42,1.32-.93,2.5-1.54,3.53l2.74,3.22h-4.03ZM471.38,41.32l-1.94-2.18c-.19.16-.33.34-.42.55s-.14.41-.14.62c0,.34.12.64.37.87.25.24.59.36,1.02.36.39,0,.76-.07,1.1-.22h.01Z" style="fill:#231f20;"/></g><g style="clip-path:url(#uuid-43f728a5-ecf2-49b4-a816-1fb5fcd9fc5a);"><path d="M287.5,54.22v14.05h-3.62v-7.01l-1.79,7.01h-3.12l-1.79-7.01v7.01h-3.64v-14.05h4.46l2.56,8.44,2.49-8.44h4.45Z" style="fill:#231f20;"/><path d="M296.88,66.15h-3.87l-.57,2.12h-3.82l4.25-14.05h4.2l4.23,14.05h-3.84l-.57-2.12h-.01ZM295.99,62.84l-1.05-3.91-1.05,3.91h2.1,0Z" style="fill:#231f20;"/><path d="M313.53,68.28h-3.64l-3.85-7.07v7.07h-3.64v-14.05h3.64l3.85,7.19v-7.19h3.64v14.05Z" style="fill:#231f20;"/><path d="M323.49,55.12c.91.6,1.62,1.42,2.11,2.48s.74,2.26.74,3.61-.25,2.54-.74,3.61-1.19,1.92-2.11,2.53c-.91.62-1.98.92-3.19.92h-4.84v-14.05h4.84c1.21,0,2.28.3,3.19.89h0ZM321.93,63.53c.48-.54.72-1.32.72-2.32s-.24-1.78-.72-2.32c-.48-.54-1.13-.81-1.95-.81h-.87v6.27h.87c.82,0,1.47-.27,1.95-.81h0Z" style="fill:#231f20;"/><path d="M330.59,67.48c-.91-.62-1.64-1.48-2.17-2.58-.54-1.1-.8-2.34-.8-3.71s.27-2.61.8-3.71c.54-1.1,1.26-1.96,2.17-2.57s1.92-.92,3.01-.92,2.09.31,3,.92c.91.62,1.63,1.47,2.16,2.57s.79,2.34.79,3.71-.27,2.61-.79,3.71c-.53,1.1-1.25,1.96-2.16,2.58s-1.91.93-2.99.93-2.1-.31-3.01-.93h-.01ZM335.27,63.46c.39-.56.59-1.32.59-2.27s-.2-1.73-.59-2.29-.95-.84-1.67-.84-1.3.28-1.69.84-.59,1.33-.59,2.29.2,1.71.59,2.27c.39.56.96.84,1.69.84s1.28-.28,1.67-.84Z" style="fill:#231f20;"/><path d="M344.8,64.94h3.51v3.33h-7.15v-14.05h3.64v10.72h0Z" style="fill:#231f20;"/><path d="M353.39,54.22v14.05h-3.64v-14.05h3.64Z" style="fill:#231f20;"/><path d="M366.46,68.28h-3.64l-3.85-7.07v7.07h-3.64v-14.05h3.64l3.85,7.19v-7.19h3.64v14.05Z" style="fill:#231f20;"/><path d="M378.94,66.15h-3.87l-.57,2.12h-3.82l4.25-14.05h4.2l4.23,14.05h-3.84l-.57-2.12h-.01ZM378.05,62.84l-1.05-3.91-1.05,3.91h2.1,0Z" style="fill:#231f20;"/><path d="M385.57,67.24c-.9-.79-1.39-1.94-1.47-3.46h3.87c.05.81.35,1.21.89,1.21.2,0,.36-.06.5-.17s.21-.29.21-.53c0-.33-.15-.6-.44-.8-.3-.21-.75-.44-1.38-.7-.74-.32-1.36-.63-1.84-.93-.49-.3-.9-.75-1.25-1.33s-.52-1.33-.51-2.24c0-.91.19-1.69.58-2.33.39-.64.92-1.13,1.59-1.46.67-.33,1.43-.5,2.27-.5,1.42,0,2.55.4,3.39,1.19.84.79,1.28,1.91,1.32,3.35h-3.92c-.01-.4-.09-.68-.25-.85-.15-.17-.34-.26-.56-.26-.15,0-.28.06-.38.19s-.15.3-.15.53c0,.32.15.58.43.78.29.21.75.45,1.39.74.73.33,1.34.65,1.81.95.48.3.89.73,1.24,1.27.35.54.52,1.22.52,2.04s-.17,1.63-.52,2.31c-.35.68-.86,1.21-1.52,1.6-.67.38-1.46.58-2.38.58-1.39,0-2.53-.39-3.43-1.18h0Z" style="fill:#231f20;"/><path d="M396.11,67.24c-.9-.79-1.39-1.94-1.47-3.46h3.87c.05.81.35,1.21.89,1.21.2,0,.36-.06.5-.17s.21-.29.21-.53c0-.33-.15-.6-.44-.8-.3-.21-.75-.44-1.38-.7-.74-.32-1.36-.63-1.84-.93-.49-.3-.9-.75-1.25-1.33s-.52-1.33-.51-2.24c0-.91.19-1.69.58-2.33.39-.64.92-1.13,1.59-1.46.67-.33,1.43-.5,2.27-.5,1.42,0,2.55.4,3.39,1.19.84.79,1.28,1.91,1.32,3.35h-3.92c-.01-.4-.09-.68-.25-.85-.15-.17-.34-.26-.56-.26-.15,0-.28.06-.38.19s-.15.3-.15.53c0,.32.15.58.43.78.29.21.75.45,1.39.74.73.33,1.34.65,1.81.95.48.3.89.73,1.24,1.27.35.54.52,1.22.52,2.04s-.17,1.63-.52,2.31c-.35.68-.86,1.21-1.52,1.6-.67.38-1.46.58-2.38.58-1.39,0-2.53-.39-3.43-1.18h0Z" style="fill:#231f20;"/><path d="M408.2,67.48c-.91-.62-1.64-1.48-2.17-2.58-.54-1.1-.8-2.34-.8-3.71s.27-2.61.8-3.71c.54-1.1,1.26-1.96,2.17-2.57s1.92-.92,3.01-.92,2.09.31,3,.92c.91.62,1.63,1.47,2.16,2.57s.79,2.34.79,3.71-.27,2.61-.79,3.71c-.53,1.1-1.25,1.96-2.16,2.58s-1.91.93-2.99.93-2.1-.31-3.01-.93h-.01ZM412.88,63.46c.39-.56.59-1.32.59-2.27s-.2-1.73-.59-2.29-.95-.84-1.67-.84-1.3.28-1.69.84-.59,1.33-.59,2.29.2,1.71.59,2.27c.39.56.96.84,1.69.84s1.28-.28,1.67-.84Z" style="fill:#231f20;"/><path d="M419.13,57.52c.46-1.08,1.13-1.93,1.99-2.53s1.88-.9,3.05-.9c1.01,0,1.9.23,2.7.69.79.46,1.44,1.1,1.93,1.94.5.83.83,1.81.99,2.92h-3.84c-.17-.46-.42-.82-.75-1.08-.32-.26-.69-.39-1.11-.39-.61,0-1.1.28-1.45.83-.36.56-.53,1.3-.53,2.24s.18,1.69.53,2.24c.35.56.84.83,1.45.83.42,0,.78-.13,1.11-.39.32-.26.57-.62.75-1.08h3.84c-.16,1.11-.49,2.08-.99,2.92-.5.83-1.14,1.48-1.93,1.94s-1.69.68-2.7.68c-1.17,0-2.19-.3-3.05-.9-.86-.6-1.53-1.45-1.99-2.53s-.7-2.32-.7-3.71.23-2.63.7-3.71h0Z" style="fill:#231f20;"/><path d="M435.05,54.22v14.05h-3.64v-14.05h3.64Z" style="fill:#231f20;"/><path d="M444.42,66.15h-3.87l-.57,2.12h-3.82l4.25-14.05h4.2l4.23,14.05h-3.84l-.57-2.12h0ZM443.54,62.84l-1.05-3.91-1.05,3.91h2.1,0Z" style="fill:#231f20;"/><path d="M459.07,54.22v3.49h-3.08v10.56h-3.64v-10.56h-3.05v-3.49h9.77Z" style="fill:#231f20;"/><path d="M463.98,54.22v14.05h-3.64v-14.05h3.64Z" style="fill:#231f20;"/><path d="M468.57,67.48c-.91-.62-1.64-1.48-2.17-2.58-.54-1.1-.8-2.34-.8-3.71s.27-2.61.8-3.71c.54-1.1,1.26-1.96,2.17-2.57s1.92-.92,3.01-.92,2.09.31,3,.92c.91.62,1.63,1.47,2.16,2.57.53,1.1.79,2.34.79,3.71s-.27,2.61-.79,3.71c-.53,1.1-1.25,1.96-2.16,2.58s-1.91.93-2.99.93-2.1-.31-3.01-.93h-.01ZM473.25,63.46c.39-.56.59-1.32.59-2.27s-.2-1.73-.59-2.29-.95-.84-1.67-.84-1.3.28-1.69.84-.59,1.33-.59,2.29.2,1.71.59,2.27.96.84,1.69.84,1.28-.28,1.67-.84Z" style="fill:#231f20;"/><path d="M490.27,68.28h-3.64l-3.85-7.07v7.07h-3.64v-14.05h3.64l3.85,7.19v-7.19h3.64v14.05Z" style="fill:#231f20;"/></g></g></g></svg>