<?xml version="1.0" encoding="UTF-8"?><svg id="uuid-e80cbed2-0519-47f8-b203-750792ac93c3" xmlns="http://www.w3.org/2000/svg" xmlns:xlink="http://www.w3.org/1999/xlink" viewBox="0 0 318.61 139.27"><defs><clipPath id="uuid-ac2ded78-c37d-4896-b545-e03f9729d344"><rect y="31.55" width="221.97" height="97.24" style="fill:none;"/></clipPath><clipPath id="uuid-73330b53-4149-4e99-a6d4-532597837621"><rect x="231.74" y="17.26" width="34.49" height="104.78" style="fill:none;"/></clipPath><clipPath id="uuid-faefc2d5-a1ba-4b83-ac97-97a447106a91"><path d="M261.12,103.13c-2.21-2.75-4.5-5.59-4.63-7.95-.08-1.44.72-3.22,1.49-4.95.63-1.4,1.22-2.73,1.43-4,.44-2.66.6-6.61-3.11-10.1-2.39-2.25-5.12-2.78-6.93-3.14-.45-.09-1.04-.2-1.34-.31-.63-2.71-1.56-19.89-2.06-31.5,4.97-2.4,9.72-3.72,9.81-3.74.65-.18,1.03-.84.86-1.49-.18-.65-.84-1.03-1.49-.86-.37.1-4.58,1.26-9.29,3.45,0-.08-.01-.15-.02-.23-.03-.33-.08-.82-.04-1.04.15-.06.41-.15.63-.21,1.1-.35,3.39-1.06,3.11-3.37-.26-2.11-1.25-2.66-2.32-3.07-.05-.02-.1-.04-.15-.06-.95-.64-1.06-.84-1.11-1.46.12-.1.31-.23.43-.31.51-.35,1.36-.93,1.15-1.94-.23-1.12-1.56-1.38-2.44-1.55-.44-.08-.68-.22-.78-.3.88-1.14.81-2.02.57-3.34-.27-1.52-2.1-2.59-6.33-3.69-1.98-.51-2.66-.67-2.69-.67-.66-.15-1.31.27-1.45.92-.15.66.27,1.31.92,1.45,0,0,.68.15,2.61.65,3.71.96,4.43,1.66,4.56,1.82.18,1,.14,1.04-.13,1.39-.52.66-.67,1.5-.39,2.26.18.5.69,1.33,2.07,1.76-.34.37-.59.84-.55,1.45.1,1.56.44,2.41,2.3,3.66l.1.06.11.05c.11.04.21.09.32.13.6.23.67.26.78,1.1.03.27-.68.51-1.42.74-.45.14-.87.27-1.22.48-1.3.76-1.16,2.25-1.06,3.33.03.35.07.71.06,1.03v.15c-4.75,2.51-9.45,6.02-10.83,10.49-3.25,10.53,2.73,17.36,8.51,23.96,1.98,2.27,4.04,4.61,5.65,7.05.66,1.01,1.77,4.06,2.63,7.26,1.02,3.82,1.23,6.02,1.12,6.62-1.11,1.13-2.22,2.42-2.9,4.23-.37.99-.14,1.91.4,2.65-1.26.66-2.67,1.64-3.02,2.88-.21.74-.05,1.49.46,2.12,1.1,1.37,2.7,1.53,3.92,1.53-.96.79-2.73,2.34-1.4,4.12.97,1.29,3.71,1.59,6.06,1.59,1.12,0,2.15-.07,2.86-.13.67-.06,1.17-.65,1.11-1.32-.06-.67-.65-1.16-1.32-1.11-2.87.25-5.92.05-6.67-.43.2-.27.71-.68,1-.92.88-.72,1.88-1.54,1.68-2.73-.26-1.54-1.88-1.52-2.85-1.51-1.16,0-2.01-.02-2.49-.61.24-.5,1.85-1.47,3.37-2.02.46-.17.78-.6.8-1.09s-.26-.95-.7-1.16c-.17-.08-1.09-.62-.94-1.01.54-1.44,1.5-2.52,2.46-3.49.43-.43,1.33-1.33-.47-8.3-.81-3.14-2.08-6.99-3.09-8.52-1.7-2.58-3.81-4.99-5.85-7.32-5.59-6.38-10.86-12.41-8.02-21.64,1.06-3.45,4.69-6.32,8.62-8.51.14,3.13.39,8.47.69,13.83.96,17.17,1.41,17.63,1.9,18.11.61.61,1.55.8,2.72,1.03,1.72.34,3.85.76,5.73,2.52,2.83,2.67,2.76,5.64,2.38,7.93-.16.96-.69,2.15-1.25,3.41-.89,1.99-1.81,4.05-1.7,6.07.17,3.14,2.71,6.29,5.16,9.34,2.46,3.06,5,6.22,4.5,8.63-.26,1.26-1.35,2.38-3.33,3.42-4.97,2.61-8.87,3-11.27,2.87-2.58-.14-4.03-.9-4.04-.91-.59-.32-1.32-.11-1.65.48-.33.59-.11,1.33.48,1.66.15.08,2.3,1.23,6.05,1.23,2.94,0,6.86-.7,11.57-3.18,2.67-1.4,4.16-3.06,4.58-5.08.74-3.54-2.17-7.16-4.99-10.66v.02Z" style="fill:none;"/></clipPath><clipPath id="uuid-6f76dc66-f404-4270-a872-9fe830c13e82"><rect x="231.74" y="17.26" width="34.49" height="104.78" style="fill:none;"/></clipPath><linearGradient id="uuid-6f04eb21-e7b5-4adf-b009-28bb534a8e86" x1="-184.15" y1="-3828.72" x2="-183.15" y2="-3828.72" gradientTransform="translate(13357.23 272942.65) scale(71.27)" gradientUnits="userSpaceOnUse"><stop offset="0" stop-color="#2e3588"/><stop offset=".05" stop-color="#1c5da7"/><stop offset=".12" stop-color="#009dd9"/><stop offset=".25" stop-color="#0c9447"/><stop offset=".29" stop-color="#31a244"/><stop offset=".38" stop-color="#8bc63f"/><stop offset=".41" stop-color="#a1ce3c"/><stop offset=".47" stop-color="#dbe336"/><stop offset=".5" stop-color="#faee33"/><stop offset=".58" stop-color="#f6b027"/><stop offset=".62" stop-color="#f59222"/><stop offset=".68" stop-color="#f37c25"/><stop offset=".75" stop-color="#f05b2a"/><stop offset=".77" stop-color="#ef5335"/><stop offset=".82" stop-color="#ec3e55"/><stop offset=".87" stop-color="#e81c87"/><stop offset=".88" stop-color="#e81c89"/><stop offset=".9" stop-color="#d61e89"/><stop offset="1" stop-color="#90278c"/></linearGradient></defs><g id="uuid-ff7ef3e2-3f61-4fe2-ba5b-35759822b2ed"><g id="uuid-2f2d0be4-29d4-4e12-a5eb-69126553d68b"><g style="clip-path:url(#uuid-ac2ded78-c37d-4896-b545-e03f9729d344);"><path d="M197.27,81.54h-21.67l-3.21,8.9h-21.39l23.78-58.89h23.5l23.69,58.89h-21.48l-3.21-8.9M192.31,67.65l-5.88-16.39-5.88,16.39h11.76Z" style="fill:#231f20;"/><path d="M73.36,52.98c-.8-1.16-1.93-2.06-3.4-2.7s-3.24-.96-5.32-.96c-3.92,0-6.95,1.15-9.09,3.45s-3.21,5.45-3.21,9.44c0,4.6,1.19,8.04,3.58,10.31s6.06,3.41,11.02,3.41,8.51-1.72,11.38-5.16h-16.25v-13.06h33.14v18.46c-2.82,4.38-6.7,8.14-11.66,11.27s-11.23,4.7-18.82,4.7c-6.73,0-12.59-1.26-17.58-3.78-4.99-2.52-8.81-6.06-11.48-10.6-2.66-4.55-3.99-9.73-3.99-15.55s1.33-11.01,3.99-15.55c2.66-4.55,6.47-8.08,11.43-10.6s10.77-3.78,17.44-3.78c8.51,0,15.44,1.86,20.79,5.57s2.34.62,10.79,9.4l-22.77,5.74" style="fill:#231f20;"/><polyline points="23.06 76.47 42.7 76.47 42.7 90.44 .08 90.44 .08 35.13 23.06 35.13 23.06 76.47" style="fill:#231f20;"/><polyline points="159.05 52.12 168.34 111.01 148.05 111.01 145.12 81.65 135.12 111.01 117.67 111.01 107.67 81.65 101.82 111.01 81.44 111.01 91.79 52.12 115.84 52.12 126.58 87.47 133.71 52.12 159.05 52.12" style="fill:#231f20;"/></g><g style="clip-path:url(#uuid-73330b53-4149-4e99-a6d4-532597837621);"><g style="clip-path:url(#uuid-faefc2d5-a1ba-4b83-ac97-97a447106a91);"><g style="clip-path:url(#uuid-6f76dc66-f404-4270-a872-9fe830c13e82);"><rect x="199.73" y="20.4" width="98.48" height="98.48" transform="translate(23.68 196.45) rotate(-45)" style="fill:url(#uuid-6f04eb21-e7b5-4adf-b009-28bb534a8e86);"/></g></g></g></g></g></svg>