<?xml version="1.0" encoding="UTF-8"?><svg id="uuid-8a0e3f4b-667c-42a8-a7c5-4706bb082d20" xmlns="http://www.w3.org/2000/svg" xmlns:xlink="http://www.w3.org/1999/xlink" viewBox="0 0 221.97 97.24"><defs><clipPath id="uuid-d5405584-1ca6-4d54-883f-40c7d7f68179"><rect width="221.97" height="97.24" style="fill:none;"/></clipPath></defs><g id="uuid-050c7986-2018-49a5-ad19-f6bffedb2e52"><g id="uuid-72eb24b2-48a4-4fc9-a20a-8e1bdbf032c4"><g style="clip-path:url(#uuid-d5405584-1ca6-4d54-883f-40c7d7f68179);"><path d="M197.27,49.99h-21.67l-3.21,8.9h-21.39L174.78,0h23.5l23.69,58.89h-21.48l-3.21-8.9M192.31,36.1l-5.88-16.39-5.88,16.39h11.76Z" style="fill:#231f20;"/><path d="M73.36,21.43c-.8-1.16-1.93-2.06-3.4-2.7s-3.24-.96-5.32-.96c-3.92,0-6.95,1.15-9.09,3.45s-3.21,5.45-3.21,9.44c0,4.6,1.19,8.04,3.58,10.31s6.06,3.41,11.02,3.41,8.51-1.72,11.38-5.16h-16.25v-13.06h33.14v18.46c-2.82,4.38-6.7,8.14-11.66,11.27s-11.23,4.7-18.82,4.7c-6.73,0-12.59-1.26-17.58-3.78-4.99-2.52-8.81-6.06-11.48-10.6-2.66-4.55-3.99-9.73-3.99-15.55s1.33-11.01,3.99-15.55c2.66-4.55,6.47-8.08,11.43-10.6s10.77-3.78,17.44-3.78c8.51,0,15.44,1.86,20.79,5.57s2.34.62,10.79,9.4l-22.77,5.74" style="fill:#231f20;"/><polyline points="23.06 44.92 42.7 44.92 42.7 58.89 .08 58.89 .08 3.58 23.06 3.58 23.06 44.92" style="fill:#231f20;"/><polyline points="159.05 20.57 168.34 79.46 148.05 79.46 145.12 50.1 135.12 79.46 117.67 79.46 107.67 50.1 101.82 79.46 81.44 79.46 91.79 20.57 115.84 20.57 126.58 55.92 133.71 20.57 159.05 20.57" style="fill:#231f20;"/></g></g></g></svg>