<?xml version="1.0" encoding="UTF-8"?><svg id="uuid-92c6465d-6aa4-417a-95ad-7f90e7293a19" xmlns="http://www.w3.org/2000/svg" xmlns:xlink="http://www.w3.org/1999/xlink" viewBox="0 0 216.46 44.9"><defs><clipPath id="uuid-45ae7a0f-a115-4bf7-a281-8d344fdbf0fc"><rect width="216.46" height="44.9" style="fill:none;"/></clipPath></defs><g id="uuid-ca661d0a-57eb-4268-acd8-d045a26e9b92"><g style="clip-path:url(#uuid-45ae7a0f-a115-4bf7-a281-8d344fdbf0fc);"><path d="M128.58,44.89c-2.86,0-5.57-1.39-7.48-4.02-3.16-4.35-3.75-11.47.61-19.02-10.78-1.93-24.74,2.51-35.69,5.99-9.29,2.95-16.63,5.28-19.77,3.28-.76-.48-1.15-1.19-1.13-2.03.12-5.36,19.51-16.78,23.4-19.01,3.66-2.1,4.6-3.5,4.26-4.11-1.29-2.34-14.93-2.71-35.52.7C35.34,10.3,14.34,16.68,1.09,23.73c-.37.2-.82.05-1.01-.31-.19-.37-.06-.82.31-1.01C13.77,15.29,34.94,8.85,57,5.2c15.65-2.59,34.76-4.14,37.07.05,1.41,2.54-3.28,5.24-4.83,6.13-11.2,6.44-22.57,14.61-22.65,17.75,0,.22.04.48.44.73,2.55,1.63,9.95-.72,18.51-3.45,11.31-3.59,25.75-8.18,36.99-5.93,1.49-2.29,3.45-4.6,5.92-6.88,15-13.78,54.85-21.88,87.66-.48.35.23.45.69.22,1.04-.23.35-.69.44-1.04.22C196.9,2.38,178.14.88,165.64,1.74c-14.69,1.01-28.55,5.98-36.16,12.97-2.22,2.04-4,4.1-5.38,6.14,3.07.82,5.86,2.21,8.24,4.35,2.39,2.15,5.68,7.54,5.16,12.29-.29,2.65-1.69,4.7-4.15,6.09-1.55.88-3.17,1.3-4.76,1.3M123.25,22.18c-4.29,7.13-3.86,13.8-.94,17.81,2.54,3.49,6.58,4.39,10.29,2.29,2.02-1.15,3.17-2.81,3.4-4.95.48-4.38-2.81-9.34-4.67-11.02-2.3-2.07-5.04-3.39-8.09-4.13Z" style="fill:#fff;"/></g></g></svg>