<?xml version="1.0" encoding="UTF-8"?><svg id="uuid-6b32fe1b-898f-4771-844c-1407a0520757" xmlns="http://www.w3.org/2000/svg" viewBox="0 0 34.11 24.1"><g id="uuid-dc02a54c-9a93-4097-9884-41bb2f549af2"><path d="M33.46,3.95c-.8-2.6-1.83-3.01-4.45-3.5C26.15-.09,19.33-.01,17.06.03,14.78-.01,7.96-.09,5.11.45,2.49.94,1.46,1.35.66,3.95s-.85,12.35-.25,15.2c.49,2.33,1.1,3.9,3.85,4.35,2.26.37,9.75.54,12.35.58v.02s.16,0,.45,0c.29,0,.45,0,.45,0v-.02c2.6-.05,10.09-.22,12.35-.58,2.75-.45,3.36-2.02,3.85-4.35.6-2.85.55-12.6-.25-15.2M13.61,17.05V7l8.75,5-8.75,5.05Z" style="fill:#231f20;"/></g></svg>